PathFileType	4	(X/Y/Z)	Patient4_TMGait_0pt4_02_left_38.trc.trc
DataRate	CameraRate	NumFrames	NumMarkers	Units	OrigDataRate	OrigDataStartFrame	OrigNumFrames
74.866310160428	74.866310160428	4	33	mm	74.866310160428	71	       141
Frame#	Time	Sacral			L.Shoulder			Chest			R.Shoulder			Neck			R.ASIS			L.ASIS			R.Thigh.Superior			R.Thigh.Lateral			R.Thigh.Inferior			R.Patella			L.Thigh.Superior			L.Thigh.Lateral			L.Thigh.Inferior			L.Patella			L.Shank.Superior			L.Shank.Lateral			L.Shank.Inferior			R.Shank.Superior			R.Shank.Lateral			R.Shank.Inferior			R.Heel			R.Midfoot.Superior			R.Midfoot.Lateral			R.Toe			L.Heel			L.Midfoot.Lateral			L.Midfoot.Superior			L.Toe			L.Elbow			L.Wrist			R.Elbow			R.Wrist			
		X1	Y1	Z1	X2	Y2	Z2	X3	Y3	Z3	X4	Y4	Z4	X5	Y5	Z5	X6	Y6	Z6	X7	Y7	Z7	X8	Y8	Z8	X9	Y9	Z9	X10	Y10	Z10	X11	Y11	Z11	X12	Y12	Z12	X13	Y13	Z13	X14	Y14	Z14	X15	Y15	Z15	X16	Y16	Z16	X17	Y17	Z17	X18	Y18	Z18	X19	Y19	Z19	X20	Y20	Z20	X21	Y21	Z21	X22	Y22	Z22	X23	Y23	Z23	X24	Y24	Z24	X25	Y25	Z25	X26	Y26	Z26	X27	Y27	Z27	X28	Y28	Z28	X29	Y29	Z29	X30	Y30	Z30	X31	Y31	Z31	X32	Y32	Z32	X33	Y33	Z33	

71	51.715000000000	832.109296082142	1012.085869211006	444.846795760864	1037.616616054864	1431.669568406607	263.941653586299	1126.749843671090	1364.482643367744	432.883900852045	1033.452783238891	1442.919311409215	599.632215891494	1007.457742104305	1496.430322056342	418.888544119206	1055.068139016288	943.699585472334	573.118232219800	1051.518221655277	960.541160564729	298.897823079262	1111.454039144027	755.904258912535	552.492976931158	1051.472290074388	643.270302150416	631.392436571202	1134.216455277092	593.405875256667	552.353604296496	1156.508427307010	513.085321967537	569.455683366209	1066.707960852025	737.730002317218	323.665206363659	960.784859780281	637.104608964842	257.012566977836	1030.526477828210	547.391431805001	318.029439860373	1019.532924928694	480.988138794741	325.807277582251	989.119077646127	412.459023146307	315.945594753996	889.830643241976	306.280211207758	263.479379033768	933.467373816313	189.937526124081	332.078059425347	1137.598166514992	426.496136035942	585.969899801481	1081.153794776498	319.990929382766	658.297183711526	1142.491888405051	227.159985512739	607.781020969940	1038.020211801111	47.436564589928	595.167524062079	1207.814799608250	108.863046856764	621.578564529628	1125.254991592806	43.580135132308	665.059034786048	1329.994897375718	62.964193196514	645.194206576765	799.666203926351	38.856887888388	376.906095457356	870.158746679028	34.699302250796	293.264134173548	954.906472835043	95.443047894782	318.474326244818	1082.540409075834	42.068255385657	284.974557051553	1059.479207419854	1093.122297704047	117.730224696444	1260.052919380965	928.249500842298	156.287395611865	922.093120470077	1117.592635783166	724.178826501367	950.067820684774	858.194653353940	745.300120975627	
72	51.728357142857	833.531858103365	1011.060682831073	448.131437046680	1037.687339814336	1430.835284496835	267.218850059259	1127.310358243333	1363.929719046829	436.025690297304	1034.131164973445	1442.224016982706	602.950962013866	1007.754687665561	1495.631855571007	422.193535509636	1056.609199276968	942.475811787209	576.051745954469	1053.085414380259	960.287225136397	301.924697958097	1112.111619905712	754.094588347540	555.536227033446	1050.247905089248	641.061045569728	632.899008290846	1133.693375108015	591.879250337300	554.404682370248	1154.386158547227	511.473988769760	570.545267369019	1066.326836245094	736.595028161168	326.396878939637	959.395620263082	636.956657624038	259.092716875609	1028.089686727775	546.493845556970	320.024425500083	1016.494895701801	480.114096466830	327.462837485617	985.668299896154	411.919014570791	317.313032953847	885.595419222378	306.565106670738	264.512024227469	928.546659159359	189.621410719325	332.580498356119	1135.701761736290	424.323365078652	586.845676925269	1078.142315425979	317.532251656968	657.639319014751	1140.005291294868	224.957781721084	607.292189191850	1035.559549136028	45.974922527637	592.821361530893	1204.635182154327	107.186674881517	620.258224488680	1122.030223031230	41.922761102726	663.543437248638	1326.984124281924	61.060826356523	645.388880489694	794.243329521460	38.719089146616	376.919713104260	864.745253659378	34.632121970819	293.300782929122	949.481130449788	95.418343813562	318.565812649683	1077.129544763529	42.035621514740	284.985808280422	1057.728387628018	1091.982684649456	121.239536729991	1256.035823630620	924.097289038293	159.190781464814	922.030419634439	1117.262656528005	727.303545882413	949.009698780098	857.687150258809	747.868954080660	
73	51.741714285714	835.134156954733	1009.904608210392	451.644761798443	1037.607167196520	1429.989655700675	270.700201713597	1127.816056956974	1363.467489660613	439.372138444138	1034.685819391568	1441.530787002442	606.491311269413	1007.930888125870	1494.819589801911	425.703019361075	1058.393938085737	941.293089189381	579.162975179680	1054.819668972744	960.032100030457	305.123434300483	1113.423947817835	752.488692699054	558.549700106921	1049.709684191327	638.975990791901	634.210989436511	1133.948079839242	590.584825956405	556.313720314103	1152.969717288608	509.741585607190	571.506114202059	1066.278914466090	735.449966675320	329.254591600859	958.345913527900	636.753080806087	261.357594500478	1026.107592898094	545.564648818560	322.120257958133	1013.981810739393	479.109726178759	329.201143686790	982.594898306491	411.281427946658	318.789647715212	881.581159351503	306.893658913286	265.688556760652	923.724023285159	189.263117658237	333.136930396866	1134.105589375490	421.998545477974	587.591390669470	1074.960646425825	315.237701934305	656.949112343452	1136.741648424149	222.601748024738	606.709824539794	1031.374875028951	44.818659698498	590.525843373002	1199.802955155263	105.509904161689	618.831863947408	1117.075251223628	40.464960811044	662.119806236493	1322.329657743428	58.922398270374	645.669282867872	788.814650285582	38.566545729097	376.937268859462	859.346840711993	34.543704544220	293.357335846332	944.072666761869	95.384515875584	318.669071934297	1071.743516234179	41.980860015261	284.992502613540	1055.654905343907	1090.787452554073	125.001028308917	1251.457308529990	919.647596141439	162.168144189240	922.659589276331	1116.607632507658	730.615519239186	949.263306855971	856.886210842199	750.353326901766	
74	51.755071428571	836.875173931415	1008.675708242833	455.343441866786	1037.419102028387	1429.174188885457	274.366273702668	1128.280702166235	1363.116882392352	442.911029503060	1035.128563938822	1440.868103137650	610.233817898260	1008.011889318418	1494.034862580005	429.397657200131	1060.368670045028	940.208611225211	582.440532079865	1056.663867169010	959.780964985132	308.468798018270	1115.308160169275	751.111769636189	561.512076634946	1049.853179382160	637.125363064919	635.441230092270	1134.869815941856	589.525410143755	558.125265452409	1152.228870858048	507.974651609563	572.426991973815	1066.571818622594	734.321338110463	332.177395041644	957.658232928027	636.497572751114	263.799312849718	1024.658935896246	544.615935312449	324.282205018093	1012.103271086911	477.971204302579	330.988781095575	979.975252700972	410.550259241586	320.359333091538	877.843259583319	307.291798331885	267.012964866564	919.042323714631	188.884642219994	333.744886603686	1132.879518510455	419.658858107048	588.293534678040	1071.933182254171	313.177712578699	656.444877519032	1133.054771647544	220.222915075504	606.160340015959	1025.999030055402	43.937983399965	588.522400374714	1193.893161773683	103.946141896414	617.484723931002	1110.998745378247	39.245449179355	660.938371602017	1316.606177074546	56.747793637110	645.997958739017	783.390786498951	38.449304101065	376.955165109289	853.975102592971	34.452454535711	293.435755550206	938.708745814446	95.342982187418	318.777107827582	1066.394708223601	41.890707553315	284.990788713608	1053.262310363716	1089.567703337113	129.024118516624	1246.304207679696	914.947011301009	165.210341482194	923.972674964904	1115.656733843739	734.102051308311	950.821787953254	855.830386819149	752.789854464271	
